<svg xmlns="http://www.w3.org/2000/svg" xmlns:xlink="http://www.w3.org/1999/xlink" width="500" zoomAndPan="magnify" viewBox="0 0 375 374.999991" height="500" preserveAspectRatio="xMidYMid meet" version="1.0"><path fill="#ff8700" d="M 162.5 327.792969 C 169.53125 330.269531 177.082031 325.125 177.082031 317.703125 L 177.082031 72.003906 C 177.082031 69.269531 176.042969 66.535156 173.828125 64.84375 C 161.066406 54.6875 131.773438 41.667969 93.75 41.667969 C 60.875 41.667969 30.144531 50.324219 11.785156 57.355469 C 4.429688 60.222656 0.00390625 67.511719 0.00390625 75.390625 L 0.00390625 316.464844 C 0.00390625 324.214844 8.335938 329.617188 15.691406 327.207031 C 36.199219 320.371094 68.6875 312.496094 93.75 312.496094 C 115.820312 312.496094 145.183594 321.609375 162.5 327.792969 Z M 212.5 327.792969 C 229.816406 321.609375 259.179688 312.496094 281.25 312.496094 C 306.3125 312.496094 338.800781 320.371094 359.308594 327.207031 C 366.664062 329.683594 374.996094 324.214844 374.996094 316.464844 L 374.996094 75.390625 C 374.996094 67.511719 370.570312 60.222656 363.214844 57.421875 C 344.855469 50.324219 314.125 41.667969 281.25 41.667969 C 243.226562 41.667969 213.933594 54.6875 201.171875 64.84375 C 199.023438 66.535156 197.917969 69.269531 197.917969 72.003906 L 197.917969 317.703125 C 197.917969 325.125 205.535156 330.269531 212.5 327.792969 Z M 212.5 327.792969 " fill-opacity="1" fill-rule="nonzero"/></svg>