<svg xmlns="http://www.w3.org/2000/svg" xmlns:xlink="http://www.w3.org/1999/xlink" width="500" zoomAndPan="magnify" viewBox="0 0 375 374.999991" height="500" preserveAspectRatio="xMidYMid meet" version="1.0"><path fill="#ff8700" d="M 139.527344 50.390625 L 165.015625 93.75 L 111.328125 93.75 C 95.140625 93.75 82.03125 80.640625 82.03125 64.453125 C 82.03125 48.265625 95.140625 35.15625 111.328125 35.15625 L 112.9375 35.15625 C 123.851562 35.15625 134.03125 40.941406 139.527344 50.390625 Z M 46.875 64.453125 C 46.875 75 49.4375 84.960938 53.90625 93.75 L 23.4375 93.75 C 10.472656 93.75 0 104.222656 0 117.1875 L 0 164.0625 C 0 177.027344 10.472656 187.5 23.4375 187.5 L 351.5625 187.5 C 364.527344 187.5 375 177.027344 375 164.0625 L 375 117.1875 C 375 104.222656 364.527344 93.75 351.5625 93.75 L 321.09375 93.75 C 325.5625 84.960938 328.125 75 328.125 64.453125 C 328.125 28.855469 299.265625 0 263.671875 0 L 262.058594 0 C 238.695312 0 217.015625 12.378906 205.152344 32.519531 L 187.5 62.621094 L 169.847656 32.59375 C 157.984375 12.378906 136.304688 0 112.9375 0 L 111.328125 0 C 75.734375 0 46.875 28.855469 46.875 64.453125 Z M 292.96875 64.453125 C 292.96875 80.640625 279.859375 93.75 263.671875 93.75 L 209.984375 93.75 L 235.472656 50.390625 C 241.039062 40.941406 251.148438 35.15625 262.058594 35.15625 L 263.671875 35.15625 C 279.859375 35.15625 292.96875 48.265625 292.96875 64.453125 Z M 23.4375 210.9375 L 23.4375 339.84375 C 23.4375 359.253906 39.183594 375 58.59375 375 L 164.0625 375 L 164.0625 210.9375 Z M 210.9375 375 L 316.40625 375 C 335.816406 375 351.5625 359.253906 351.5625 339.84375 L 351.5625 210.9375 L 210.9375 210.9375 Z M 210.9375 375 " fill-opacity="1" fill-rule="nonzero"/></svg>