<svg xmlns="http://www.w3.org/2000/svg" xmlns:xlink="http://www.w3.org/1999/xlink" width="500" zoomAndPan="magnify" viewBox="0 0 375 374.999991" height="500" preserveAspectRatio="xMidYMid meet" version="1.0"><path fill="#ff8700" d="M 353.476562 195.757812 L 338.207031 195.757812 L 338.207031 352.34375 C 338.140625 353.402344 337.972656 354.441406 337.707031 355.464844 C 337.4375 356.488281 337.070312 357.472656 336.609375 358.425781 C 336.148438 359.378906 335.597656 360.277344 334.960938 361.121094 C 334.324219 361.964844 333.609375 362.738281 332.820312 363.441406 C 332.03125 364.148438 331.183594 364.769531 330.273438 365.308594 C 329.363281 365.847656 328.40625 366.292969 327.410156 366.644531 C 326.414062 366.996094 325.390625 367.25 324.34375 367.402344 C 323.296875 367.554688 322.246094 367.601562 321.1875 367.550781 L 230.976562 367.550781 L 230.976562 260.78125 C 230.976562 260.046875 230.90625 259.324219 230.765625 258.605469 C 230.621094 257.886719 230.410156 257.191406 230.128906 256.511719 C 229.847656 255.835938 229.507812 255.195312 229.097656 254.585938 C 228.691406 253.976562 228.230469 253.414062 227.714844 252.894531 C 227.195312 252.375 226.632812 251.914062 226.023438 251.507812 C 225.414062 251.101562 224.773438 250.757812 224.097656 250.476562 C 223.417969 250.195312 222.722656 249.984375 222.003906 249.839844 C 221.285156 249.695312 220.5625 249.625 219.828125 249.625 L 154.378906 249.625 C 153.644531 249.625 152.921875 249.695312 152.203125 249.839844 C 151.484375 249.980469 150.785156 250.195312 150.109375 250.472656 C 149.433594 250.753906 148.789062 251.097656 148.179688 251.503906 C 147.574219 251.914062 147.007812 252.375 146.492188 252.894531 C 145.972656 253.410156 145.511719 253.972656 145.105469 254.582031 C 144.699219 255.191406 144.355469 255.835938 144.074219 256.511719 C 143.796875 257.1875 143.582031 257.886719 143.441406 258.605469 C 143.296875 259.324219 143.226562 260.046875 143.226562 260.78125 L 143.226562 367.542969 L 53.011719 367.542969 C 52.484375 367.570312 51.960938 367.574219 51.433594 367.550781 C 50.910156 367.527344 50.386719 367.476562 49.867188 367.402344 C 49.34375 367.328125 48.828125 367.226562 48.320312 367.101562 C 47.808594 366.976562 47.304688 366.828125 46.808594 366.652344 C 46.3125 366.480469 45.824219 366.28125 45.347656 366.058594 C 44.871094 365.835938 44.40625 365.589844 43.953125 365.324219 C 43.5 365.054688 43.0625 364.765625 42.636719 364.457031 C 42.214844 364.148438 41.804688 363.816406 41.414062 363.464844 C 41.019531 363.117188 40.644531 362.746094 40.289062 362.359375 C 39.933594 361.972656 39.597656 361.570312 39.28125 361.148438 C 38.964844 360.730469 38.667969 360.292969 38.394531 359.847656 C 38.121094 359.398438 37.871094 358.9375 37.640625 358.460938 C 37.410156 357.988281 37.207031 357.503906 37.023438 357.011719 C 36.84375 356.519531 36.683594 356.015625 36.550781 355.507812 C 36.417969 355 36.3125 354.484375 36.230469 353.964844 C 36.148438 353.445312 36.089844 352.921875 36.058594 352.398438 L 36.058594 195.757812 L 20.722656 195.757812 C 3.722656 195.757812 -5.484375 179.753906 5.652344 169.484375 L 173.496094 14.316406 C 174.546875 13.425781 175.664062 12.636719 176.855469 11.945312 C 178.046875 11.253906 179.285156 10.671875 180.578125 10.199219 C 181.871094 9.726562 183.195312 9.371094 184.546875 9.132812 C 185.902344 8.894531 187.269531 8.777344 188.644531 8.78125 C 190.019531 8.785156 191.386719 8.90625 192.738281 9.152344 C 194.09375 9.394531 195.414062 9.753906 196.707031 10.230469 C 197.996094 10.710938 199.234375 11.296875 200.421875 11.992188 C 201.609375 12.6875 202.722656 13.480469 203.769531 14.375 C 258.71875 66.097656 313.691406 117.816406 368.6875 169.535156 C 379.617188 179.90625 370.414062 195.757812 353.476562 195.757812 Z M 353.476562 195.757812 " fill-opacity="1" fill-rule="nonzero"/></svg>