<svg xmlns="http://www.w3.org/2000/svg" xmlns:xlink="http://www.w3.org/1999/xlink" width="500" zoomAndPan="magnify" viewBox="0 0 375 374.999991" height="500" preserveAspectRatio="xMidYMid meet" version="1.0"><path fill="#ff8700" d="M 140.625 76.757812 C 140.625 70.019531 136.375 64.085938 130.957031 60.058594 C 122.460938 53.6875 117.1875 44.898438 117.1875 35.15625 C 117.1875 15.746094 138.207031 0 164.0625 0 C 189.917969 0 210.9375 15.746094 210.9375 35.15625 C 210.9375 44.898438 205.664062 53.6875 197.167969 60.058594 C 191.75 64.085938 187.5 70.019531 187.5 76.757812 C 187.5 86.132812 195.117188 93.75 204.492188 93.75 L 246.09375 93.75 C 265.503906 93.75 281.25 109.496094 281.25 128.90625 L 281.25 170.507812 C 281.25 179.882812 288.867188 187.5 298.242188 187.5 C 304.980469 187.5 310.914062 183.25 314.941406 177.832031 C 321.3125 169.335938 330.101562 164.0625 339.84375 164.0625 C 359.253906 164.0625 375 185.082031 375 210.9375 C 375 236.792969 359.253906 257.8125 339.84375 257.8125 C 330.101562 257.8125 321.3125 252.539062 314.941406 244.042969 C 310.914062 238.621094 304.980469 234.375 298.242188 234.375 C 288.867188 234.375 281.25 241.992188 281.25 251.367188 L 281.25 339.84375 C 281.25 359.253906 265.503906 375 246.09375 375 L 204.492188 375 C 195.117188 375 187.5 367.382812 187.5 358.007812 C 187.5 351.269531 191.746094 345.335938 197.167969 341.308594 C 205.664062 334.9375 210.9375 326.148438 210.9375 316.40625 C 210.9375 296.996094 189.917969 281.25 164.0625 281.25 C 138.207031 281.25 117.1875 296.996094 117.1875 316.40625 C 117.1875 326.148438 122.460938 334.9375 130.957031 341.308594 C 136.375 345.335938 140.625 351.269531 140.625 358.007812 C 140.625 367.382812 133.007812 375 123.632812 375 L 35.15625 375 C 15.746094 375 0 359.253906 0 339.84375 L 0 251.367188 C 0 241.992188 7.617188 234.375 16.992188 234.375 C 23.730469 234.375 29.664062 238.621094 33.691406 244.042969 C 40.0625 252.539062 48.851562 257.8125 58.59375 257.8125 C 78.003906 257.8125 93.75 236.792969 93.75 210.9375 C 93.75 185.082031 78.003906 164.0625 58.59375 164.0625 C 48.851562 164.0625 40.0625 169.335938 33.691406 177.832031 C 29.664062 183.25 23.730469 187.5 16.992188 187.5 C 7.617188 187.5 0 179.882812 0 170.507812 L 0 128.90625 C 0 109.496094 15.746094 93.75 35.15625 93.75 L 123.632812 93.75 C 133.007812 93.75 140.625 86.132812 140.625 76.757812 Z M 140.625 76.757812 " fill-opacity="1" fill-rule="nonzero"/></svg>